<?xml version="1.0" encoding="utf-8"?>
<!-- Generator: Adobe Illustrator 25.2.3, SVG Export Plug-In . SVG Version: 6.00 Build 0)  -->
<svg version="1.1" id="Layer_1" xmlns="http://www.w3.org/2000/svg" xmlns:xlink="http://www.w3.org/1999/xlink" x="0px" y="0px"
	 viewBox="0 0 200 200" style="enable-background:new 0 0 200 200;" xml:space="preserve">
<style type="text/css">
	.st0{fill:#FFFFFF;}
	.st1{fill:#7377BF;}
	.st2{fill:#FFFFFF;stroke:#000000;stroke-width:0.5;stroke-miterlimit:10;}
</style>
<g>
	<polyline class="st0" points="65.1,21.1 144.1,100 65.1,178.9 	"/>
	<g>
		<path class="st1" d="M60.9,25.3c23,23,46.1,46.1,69.1,69.1c3.3,3.3,6.5,6.5,9.8,9.8c0-2.8,0-5.7,0-8.5c-23,23-46.1,46.1-69.1,69.1
			c-3.3,3.3-6.5,6.5-9.8,9.8c-5.5,5.5,3,14,8.5,8.5c23-23,46.1-46.1,69.1-69.1c3.3-3.3,6.5-6.5,9.8-9.8c2.3-2.3,2.3-6.2,0-8.5
			c-23-23-46.1-46.1-69.1-69.1c-3.3-3.3-6.5-6.5-9.8-9.8C63.9,11.4,55.4,19.9,60.9,25.3L60.9,25.3z"/>
	</g>
</g>
<path class="st2" d="M100,4.2"/>
</svg>
