<?xml version="1.0" encoding="utf-8"?>
<!-- Generator: Adobe Illustrator 25.2.3, SVG Export Plug-In . SVG Version: 6.00 Build 0)  -->
<svg version="1.1" id="Layer_3" xmlns="http://www.w3.org/2000/svg" xmlns:xlink="http://www.w3.org/1999/xlink" x="0px" y="0px"
	 viewBox="0 0 32 32" style="enable-background:new 0 0 32 32;" xml:space="preserve">
<style type="text/css">
	.st0{fill:#7377BF;}
</style>
<g>
	<path class="st0" d="M16.8,21.5c-0.1-0.1-0.1-0.2-0.2-0.4c-0.1-0.1-0.2-0.2-0.2-0.4c-0.1-0.1-0.2-0.2-0.3-0.4
		c-0.1-0.1-0.2-0.2-0.3-0.3c-0.1-0.1-0.2-0.2-0.4-0.3c-0.2-0.1-0.3-0.2-0.4-0.2c-0.1,0-0.2-0.1-0.4-0.2c-0.2-0.1-0.3-0.2-0.4-0.2
		c-0.1,0-0.3,0-0.6,0c-0.4,0-0.9,0-1.2,0.1c-0.4,0.1-0.9,0.1-1.3,0.3c-0.4,0.1-0.8,0.3-1.2,0.6c-0.4,0.2-0.6,0.5-0.8,0.9
		c-0.2,0.4-0.3,0.8-0.3,1.3c0,0.6,0.1,1.1,0.4,1.4c0.3,0.4,0.7,0.7,1.1,1c0.4,0.2,0.9,0.4,1.4,0.6c0.5,0.1,1,0.2,1.5,0.2
		c0.5,0,0.9-0.1,1.4-0.1c0.4-0.1,0.8-0.2,1.2-0.5c0.4-0.2,0.7-0.5,0.9-0.9c0.2-0.4,0.3-0.8,0.3-1.3c0-0.2,0-0.3-0.1-0.5
		C16.9,21.8,16.9,21.6,16.8,21.5z"/>
	<path class="st0" d="M15.1,14c0.3-0.4,0.5-1.1,0.5-1.9c0-0.5-0.1-1-0.2-1.6C15.3,10,15.1,9.5,14.8,9c-0.2-0.5-0.6-0.9-1-1.2
		c-0.4-0.3-0.9-0.5-1.4-0.5c-0.7,0-1.3,0.2-1.7,0.8c-0.4,0.6-0.6,1.2-0.6,2c0,0.4,0.1,0.7,0.1,1.2c0.1,0.4,0.2,0.8,0.4,1.2
		c0.2,0.4,0.4,0.8,0.7,1.1c0.2,0.3,0.6,0.6,0.9,0.8c0.4,0.2,0.7,0.3,1.2,0.3C14.2,14.7,14.7,14.5,15.1,14z"/>
	<path class="st0" d="M16,0.2C7.2,0.2,0.2,7.2,0.2,16c0,8.8,7.1,15.8,15.8,15.8S31.8,24.8,31.8,16C31.8,7.2,24.8,0.2,16,0.2z
		 M16.9,24.7c-1.2,1.1-2.9,1.6-5,1.6c-0.5,0-0.9-0.1-1.4-0.1c-0.5-0.1-1-0.2-1.4-0.4c-0.5-0.2-0.9-0.4-1.3-0.7
		c-0.4-0.2-0.7-0.6-0.9-1.1c-0.2-0.4-0.3-0.8-0.3-1.4c0-0.5,0.1-1,0.4-1.6c0.2-0.5,0.6-0.9,1.1-1.3c0.5-0.4,1.1-0.7,1.7-0.9
		c0.6-0.2,1.2-0.3,1.9-0.4c0.6-0.1,1.2-0.1,1.8-0.2c-0.5-0.7-0.7-1.2-0.7-1.8c0-0.1,0-0.2,0-0.3c0-0.1,0.1-0.2,0.1-0.2
		c0-0.1,0.1-0.1,0.1-0.2c0.1-0.1,0.1-0.2,0.1-0.2c-0.3,0.1-0.6,0.1-0.8,0.1c-1.2,0-2.2-0.4-3-1.2c-0.9-0.8-1.2-1.7-1.2-2.9
		c0-1.1,0.4-2.1,1.1-3c0.7-0.8,1.7-1.4,2.8-1.6c0.7-0.2,1.5-0.2,2.2-0.2h5.2l-1.6,0.9H16c0.6,0.4,1,0.9,1.3,1.5
		c0.3,0.6,0.5,1.3,0.5,2c0,0.6-0.1,1.1-0.2,1.6c-0.2,0.4-0.4,0.8-0.7,1.1c-0.2,0.2-0.5,0.6-0.8,0.7c-0.2,0.2-0.5,0.5-0.7,0.7
		c-0.2,0.2-0.2,0.5-0.2,0.8c0,0.2,0.1,0.4,0.2,0.6c0.1,0.2,0.3,0.4,0.5,0.6c0.2,0.2,0.4,0.4,0.7,0.6c0.2,0.2,0.5,0.4,0.7,0.7
		c0.2,0.2,0.5,0.5,0.7,0.8c0.2,0.3,0.4,0.6,0.5,1c0.1,0.4,0.2,0.8,0.2,1.2C18.6,22.6,18.1,23.8,16.9,24.7z M26.4,11.1h-3v3h-1.6v-3
		h-3V9.5h3v-3h1.6v3h3V11.1z"/>
</g>
</svg>
