<?xml version="1.0" encoding="utf-8"?>
<!-- Generator: Adobe Illustrator 25.2.3, SVG Export Plug-In . SVG Version: 6.00 Build 0)  -->
<svg version="1.1" id="Layer_3" xmlns="http://www.w3.org/2000/svg" xmlns:xlink="http://www.w3.org/1999/xlink" x="0px" y="0px"
	 viewBox="0 0 32 32" style="enable-background:new 0 0 32 32;" xml:space="preserve">
<style type="text/css">
	.st0{fill:#7377BF;}
</style>
<path class="st0" d="M16,0.3C7.3,0.3,0.3,7.3,0.3,16c0,8.7,7,15.7,15.7,15.7s15.7-7,15.7-15.7C31.7,7.3,24.7,0.3,16,0.3z M20.8,16.4
	h-3.1c0,5,0,11.2,0,11.2H13c0,0,0-6.1,0-11.2h-2.2v-4H13V9.8c0-1.8,0.9-4.7,4.7-4.7l3.5,0V9c0,0-2.1,0-2.5,0c-0.4,0-1,0.2-1,1.1v2.3
	h3.6L20.8,16.4z"/>
</svg>
