<?xml version="1.0" encoding="utf-8"?>
<!-- Generator: Adobe Illustrator 25.0.0, SVG Export Plug-In . SVG Version: 6.00 Build 0)  -->
<svg version="1.1" xmlns="http://www.w3.org/2000/svg" xmlns:xlink="http://www.w3.org/1999/xlink" x="0px" y="0px"
	 viewBox="0 0 32 32" style="enable-background:new 0 0 32 32;" xml:space="preserve">
<style type="text/css">
	.st0{fill:#FFFFFF;}
	.st1{fill:#85DB81;}
</style>
<g id="Layer_1">
	<g id="_x36__6_">
		<g>
			<path class="st0" d="M23.5,18.6v-6.5c0-4.5-3.6-8.2-8.1-8.2s-8.1,3.7-8.1,8.2v6.5l-3.2,6.5h7.3c0.4,1.9,2,3.3,4,3.3
				s3.5-1.4,4-3.3h7.3L23.5,18.6z M15.4,26.8c-1,0-1.9-0.7-2.3-1.6h4.5C17.4,26.1,16.5,26.8,15.4,26.8z M6.6,23.5L9,18.6v-6.5
				c0-3.6,2.9-6.5,6.5-6.5s6.5,2.9,6.5,6.5v6.5l2.4,4.9H6.6z"/>
		</g>
	</g>
</g>
<g id="Layer_3">
	<circle class="st1" cx="27.5" cy="4.4" r="3.6"/>
</g>
</svg>
